<?xml version="1.0" encoding="iso-8859-1"?>
<!-- Generator: Adobe Illustrator 18.0.0, SVG Export Plug-In . SVG Version: 6.00 Build 0)  -->
<!DOCTYPE svg PUBLIC "-//W3C//DTD SVG 1.1//EN" "http://www.w3.org/Graphics/SVG/1.1/DTD/svg11.dtd">
<svg version="1.1" id="Capa_1" xmlns="http://www.w3.org/2000/svg" xmlns:xlink="http://www.w3.org/1999/xlink" x="0px" y="0px"
	 viewBox="0 0 150.725 140.725" style="enable-background:new 0 0 140.725 140.725;" xml:space="preserve" fill="green">
<g>
	<path d="M49.839,79.729c-6.673,0-12.102,5.428-12.102,12.1c0,6.672,5.429,12.1,12.102,12.1c6.672,0,12.101-5.428,12.101-12.1
		C61.939,85.157,56.511,79.729,49.839,79.729z M49.839,96.712c-2.693,0-4.884-2.19-4.884-4.883c0-2.692,2.191-4.883,4.884-4.883
		c2.692,0,4.883,2.19,4.883,4.883C54.722,94.521,52.531,96.712,49.839,96.712z"/>
	<path d="M117.563,79.729c-6.672,0-12.101,5.428-12.101,12.1c0,6.672,5.428,12.1,12.101,12.1c6.672,0,12.101-5.428,12.101-12.1
		C129.665,85.157,124.236,79.729,117.563,79.729z M117.563,96.712c-2.692,0-4.883-2.19-4.883-4.883c0-2.692,2.19-4.883,4.883-4.883
		c2.693,0,4.883,2.19,4.883,4.883C122.447,94.521,120.256,96.712,117.563,96.712z"/>
	<path d="M89.118,36.796H38.103c-6.964,0-12.631,5.666-12.631,12.63v41.929c0,1.993,1.616,3.608,3.609,3.608
		s3.609-1.615,3.609-3.608V49.426c0-2.984,2.428-5.413,5.413-5.413h51.016c2.985,0,5.413,2.429,5.413,5.413v32.907
		c0,2.984-2.428,5.413-5.413,5.413H68.11c-1.993,0-3.609,1.615-3.609,3.608s1.616,3.608,3.609,3.608h21.008
		c6.964,0,12.631-5.666,12.631-12.63V49.426C101.749,42.462,96.083,36.796,89.118,36.796z"/>
	<path d="M140.361,73.735L131.87,56.28c-0.604-1.241-1.864-2.029-3.245-2.029h-19.342c-1.993,0-3.609,1.615-3.609,3.608
		c0,1.993,1.616,3.608,3.609,3.608h17.085l7.14,14.678v15.209c0,1.993,1.616,3.608,3.609,3.608c1.993,0,3.609-1.615,3.609-3.608
		v-16.04C140.725,74.768,140.6,74.227,140.361,73.735z"/>
	<path d="M16.841,72.202H1.804C0.808,72.202,0,73.011,0,74.007s0.808,1.805,1.804,1.805h15.037c0.997,0,1.804-0.809,1.804-1.805
		S17.837,72.202,16.841,72.202z"/>
	<path d="M16.841,81.402h-8.12c-0.997,0-1.804,0.809-1.804,1.805s0.808,1.805,1.804,1.805h8.12c0.997,0,1.804-0.809,1.804-1.805
		S17.837,81.402,16.841,81.402z"/>
	<path d="M85.251,76.413c0.997,0,1.804-0.809,1.804-1.805V57.917c0-5.388-2.883-8.119-8.57-8.119H58.641
		c-0.997,0-1.804,0.808-1.804,1.805c0,0.996,0.808,1.805,1.804,1.805h19.844c4.15,0,4.962,1.653,4.962,4.51v16.691
		C83.447,75.604,84.255,76.413,85.251,76.413z"/>
</g>
<g>
</g>
<g>
</g>
<g>
</g>
<g>
</g>
<g>
</g>
<g>
</g>
<g>
</g>
<g>
</g>
<g>
</g>
<g>
</g>
<g>
</g>
<g>
</g>
<g>
</g>
<g>
</g>
<g>
</g>
</svg>
